<?xml version="1.0" encoding="UTF-8"?>
<svg id="a" xmlns="http://www.w3.org/2000/svg" viewBox="0 0 64 64">
  <defs>
    <style>
      .cls-1 {
        fill: #d17dfe;
      }

      .cls-1, .cls-2, .cls-3 {
        stroke-width: 0px;
      }

      .cls-2 {
        fill: #481a54;
      }

      .cls-3 {
        fill: #fff;
      }
    </style>
  </defs>
  <path class="cls-2" d="M56.78,18.18h-11.53c-.48-6.96-6.58-7.62-13.25-7.62s-12.77.67-13.25,7.62H7.22c-1.05,0-1.91.86-1.91,1.91v6.77l.1,1.91c0,.38.19.76.38,1.05.48.57.95,1.14,1.43,1.62v20.11c0,1.05.86,1.91,1.91,1.91h45.74c1.05,0,1.91-.86,1.91-1.91v-20.11c.48-.48,1.05-1.05,1.43-1.62.19-.29.38-.67.38-1.05l.1-1.91v-6.77c0-1.05-.86-1.91-1.91-1.91ZM22.47,18.18c.19-2.48,1.43-3.81,9.53-3.81s9.34,1.33,9.53,3.81h-19.06Z"/>
  <path class="cls-1" d="M52.96,49.63H11.04v-15.34c4.1,2.38,9.34,3.53,14.29,4v1.81c0,1.05.86,1.91,1.91,1.91h9.53c1.05,0,1.91-.86,1.91-1.91v-1.91c5.91-.57,10.67-1.91,14.29-3.91v15.34Z"/>
  <path class="cls-1" d="M36.76,30.57h-9.53c-1.05,0-1.91.86-1.91,1.91v2c-6.29-.67-11.15-2.29-14.29-4.76-.67-.57-1.33-1.14-1.81-1.81l-.1-1.14v-4.76h45.74v4.67l-.1,1.24c-.57.67-1.14,1.24-1.81,1.81-3.14,2.48-7.91,4-14.29,4.67v-1.91c0-1.05-.86-1.91-1.91-1.91Z"/>
  <path class="cls-3" d="M29.14,34.38v3.81h5.72v-3.81h-5.72Z"/>
</svg>