<?xml version="1.0" encoding="UTF-8"?>
<svg id="a" xmlns="http://www.w3.org/2000/svg" viewBox="0 0 64 64">
  <defs>
    <style>
      .cls-1 {
        fill: #d17dfe;
      }

      .cls-1, .cls-2, .cls-3 {
        stroke-width: 0px;
      }

      .cls-2 {
        fill: #481a54;
      }

      .cls-3 {
        fill: #fff;
      }
    </style>
  </defs>
  <path class="cls-2" d="M58.5,32c0-3.5-2.08-6.44-5.02-7.76-2.18-6.53-7-11.83-13.25-14.67-1.51-2.46-4.26-4.07-7.29-4.07-2.08,0-4.07.76-5.49,2.08-12.3,1.32-21.96,11.74-21.96,24.42s9.65,23.09,21.96,24.42c1.51,1.23,3.41,2.08,5.49,2.08,3.03,0,5.77-1.61,7.29-4.07,6.25-2.84,11.07-8.14,13.25-14.67,2.93-1.32,5.02-4.26,5.02-7.76Z"/>
  <path class="cls-1" d="M41.46,49.41c-.28-4.45-3.97-7.95-8.52-7.95-2.08,0-3.97.76-5.39,1.99l-2.65-2.37c-1.04-.95-2.37-1.42-3.79-1.42h-10.41c-.66-1.8-1.14-3.69-1.32-5.68h32.27c.76,3.5,3.79,6.25,7.48,6.62-1.7,3.5-4.35,6.62-7.67,8.8Z"/>
  <path class="cls-1" d="M49.13,23.48c-3.69.38-6.62,3.03-7.48,6.53l-32.27.09c.19-1.99.66-3.88,1.32-5.68h10.41c1.42,0,2.74-.47,3.79-1.42l2.65-2.37c1.51,1.23,3.41,1.99,5.39,1.99,4.54,0,8.23-3.5,8.52-7.95,3.31,2.08,5.96,5.21,7.67,8.8Z"/>
  <path class="cls-1" d="M24.71,11.94c-.19.66-.28,1.32-.28,2.08,0,1.23.28,2.46.76,3.6l-2.84,2.56c-.38.28-.76.47-1.23.47h-8.42c2.74-4.26,7-7.38,12.02-8.71Z"/>
  <path class="cls-1" d="M24.71,52.06c-5.02-1.32-9.27-4.54-12.02-8.71h8.42c.47,0,.95.19,1.23.47l2.84,2.56c-.47,1.14-.76,2.37-.76,3.6,0,.76.09,1.42.28,2.08Z"/>
  <path class="cls-3" d="M49.98,36.73c2.61,0,4.73-2.12,4.73-4.73s-2.12-4.73-4.73-4.73-4.73,2.12-4.73,4.73,2.12,4.73,4.73,4.73Z"/>
  <path class="cls-3" d="M32.95,18.75c2.61,0,4.73-2.12,4.73-4.73s-2.12-4.73-4.73-4.73-4.73,2.12-4.73,4.73,2.12,4.73,4.73,4.73Z"/>
  <path class="cls-3" d="M32.95,54.71c2.61,0,4.73-2.12,4.73-4.73s-2.12-4.73-4.73-4.73-4.73,2.12-4.73,4.73,2.12,4.73,4.73,4.73Z"/>
</svg>