<?xml version="1.0" encoding="UTF-8"?>
<svg id="a" xmlns="http://www.w3.org/2000/svg" viewBox="0 0 52 46.67">
  <defs>
    <style>
      .cls-1 {
        fill: #d17dfe;
      }

      .cls-1, .cls-2, .cls-3 {
        stroke-width: 0px;
      }

      .cls-2 {
        fill: #481a54;
      }

      .cls-3 {
        fill: #fff;
      }
    </style>
  </defs>
  <path class="cls-2" d="M45.58,15.82h-20.01c-.92,0-1.67.75-1.67,1.67v27.52c0,.92.75,1.67,1.67,1.67h20.01c.92,0,1.67-.75,1.67-1.67v-27.52c0-.42-.17-.83-.5-1.17s-.75-.5-1.17-.5Z"/>
  <path class="cls-1" d="M43.92,19.15h-16.68v24.18h16.68v-24.18Z"/>
  <path class="cls-3" d="M32.24,39.17h6.67c.92,0,1.67-.75,1.67-1.67s-.75-1.67-1.67-1.67h-6.67c-.92,0-1.67.75-1.67,1.67s.75,1.67,1.67,1.67Z"/>
  <path class="cls-3" d="M32.24,32.5h6.67c.92,0,1.67-.75,1.67-1.67s-.75-1.67-1.67-1.67h-6.67c-.92,0-1.67.75-1.67,1.67s.75,1.67,1.67,1.67Z"/>
  <path class="cls-3" d="M32.24,25.83h6.67c.92,0,1.67-.75,1.67-1.67s-.75-1.67-1.67-1.67h-6.67c-.92,0-1.67.75-1.67,1.67s.75,1.67,1.67,1.67Z"/>
  <path class="cls-2" d="M33.91,5.81v1.5l-3.34,2c-.67.42-.92,1.17-.75,1.83.17.75.83,1.25,1.58,1.25h8.34c.75,0,1.42-.5,1.58-1.25.17-.75-.08-1.5-.75-1.83l-3.34-2v-2.25l8.67-1.75c.92-.17,1.5-1.08,1.25-2-.17-.92-1.08-1.5-2-1.25l-24.68,5.25V1.73c0-.92-.75-1.67-1.67-1.67h-8.34c-.92,0-1.67.75-1.67,1.67v6.09l-2.75.5c-.92.17-1.5,1.08-1.25,2,.17.75.83,1.33,1.67,1.33h.33l2.17-.42v33.77c0,.92.75,1.67,1.67,1.67h8.34c.42,0,.83-.17,1.17-.5.33-.33.5-.75.5-1.17V8.65l13.26-2.84ZM12.23,3.31h5v2.67l-5,1.08v-3.75ZM17.23,30.58l-5-2.5v-1.17l5-3.17v6.84ZM12.23,31.83l5,2.5v1.17l-5,3.17v-6.84ZM17.23,19.82l-5,3.17v-6.84l5,2.5v1.17ZM12.23,43.34v-.75l5-3.17v3.92h-5ZM17.23,14.82l-5-2.5v-1.92l5-1.08v5.5Z"/>
</svg>