<svg width="32" height="32" viewBox="0 0 32 32" fill="none" xmlns="http://www.w3.org/2000/svg">
<path fill-rule="evenodd" clip-rule="evenodd" d="M5.54363 5.53021C11.3252 -0.18455 20.6742 -0.18455 26.4558 5.53021C32.1759 11.3064 32.2374 20.7081 26.4558 26.4229C20.6742 32.1377 11.2637 32.1991 5.54363 26.4229C-0.176458 20.6467 -0.237964 11.245 5.54363 5.53021ZM15.9997 4.91572C9.91058 4.91572 4.92857 9.8931 4.92857 15.9766C4.92857 22.06 9.91058 27.0374 15.9997 27.0374C22.1503 27.0374 27.0708 22.1215 27.0708 15.9766C27.0708 9.83165 22.0888 4.91572 15.9997 4.91572ZM13.3843 9.23045C13.9791 9.23045 14.4612 9.78054 14.4612 10.4591V21.5171C14.4612 22.1956 13.9791 22.7457 13.3843 22.7457H11.2305C10.6357 22.7457 10.1535 22.1956 10.1535 21.5171V10.4591C10.1535 9.78054 10.6357 9.23045 11.2305 9.23045H13.3843ZM20.7689 9.23045C21.3637 9.23045 21.8459 9.78054 21.8459 10.4591V21.5171C21.8459 22.1956 21.3637 22.7457 20.7689 22.7457H18.6151C18.0203 22.7457 17.5382 22.1956 17.5382 21.5171V10.4591C17.5382 9.78054 18.0203 9.23045 18.6151 9.23045H20.7689Z" fill="#747474"/>
</svg>
