<?xml version="1.0" encoding="UTF-8"?>
<svg id="a" xmlns="http://www.w3.org/2000/svg" viewBox="0 0 64 64">
  <defs>
    <style>
      .cls-1 {
        fill: #401075;
      }

      .cls-1, .cls-2, .cls-3 {
        stroke-width: 0px;
      }

      .cls-2 {
        fill: #7526e3;
      }

      .cls-3 {
        fill: #fff;
      }
    </style>
  </defs>
  <path class="cls-2" d="M53.85,10.15H10.15v43.7h43.7V10.15Z"/>
  <path class="cls-1" d="M55.93,58.01H8.07c-1.14,0-2.08-.94-2.08-2.08V8.07c0-1.14.94-2.08,2.08-2.08h47.86c1.14,0,2.08.94,2.08,2.08v47.86c0,1.14-.94,2.08-2.08,2.08Z"/>
  <path class="cls-2" d="M53.85,10.15H10.15v43.7h43.7V10.15Z"/>
  <path class="cls-3" d="M20.66,49.69l5.72-5.1-5.72-4.99v10.09Z"/>
  <path class="cls-3" d="M41.26,29.19c-1.56-1.56-3.75-2.39-6.04-2.29-3.23.1-6.45.62-9.47,1.77v-14.36h-5.1v21.96l3.54-1.56c.1,0,5.83-2.6,10.93-2.6,2.6,0,3.12,1.46,3.12,2.6v14.98h5.2v-15.19c0-1.98-.83-3.85-2.19-5.31Z"/>
  <path class="cls-3" d="M34.6,22.53h5.1c2.08-2.29,3.43-5.1,3.75-8.22h-5.1c-.52,3.02-1.87,5.83-3.75,8.22Z"/>
</svg>