<?xml version="1.0" encoding="utf-8"?>
<!-- Generator: Adobe Illustrator 28.1.0, SVG Export Plug-In . SVG Version: 6.00 Build 0)  -->
<svg version="1.1" id="icon" xmlns="http://www.w3.org/2000/svg" xmlns:xlink="http://www.w3.org/1999/xlink" x="0px" y="0px"
	 viewBox="0 0 64 64" style="enable-background:new 0 0 64 64;" xml:space="preserve">
<style type="text/css">
	.st0{fill:#032D60;}
	.st1{fill:#0D9DDA;}
	.st2{fill:#FFFFFF;}
</style>
<title>admin-day3</title>
<g>
	<g>
		<path class="st0" d="M23,21.2V20c0-0.7,0.3-1,1-1h1.2c0.1,0,0.2,0,0.4,0C28,18.7,31,17,31,13c0-4.4-3.6-6-6-6H13c-1.1,0-2,0.9-2,2
			s0.9,2,2,2h12c0.9,0,2,0.4,2,2s-1.1,2-2,2h-1c-3.7,0-5,3-5,5v1.2c-5.7,1-10,5.9-10,11.8v4v8c0,6.6,5.4,12,12,12s12-5.4,12-12v-8
			v-4C33,27.1,28.7,22.1,23,21.2z"/>
		<path class="st0" d="M54.4,13.6l-6-6c-0.8-0.8-2-0.8-2.8,0l-6,6C39.2,14,39,14.5,39,15v3v29v4c0,2.4,1.6,6,6,6h4c2.4,0,6-1.6,6-6
			v-4V18v-3C55,14.5,54.8,14,54.4,13.6z"/>
		<path class="st1" d="M19,25.3c-3.4,0.9-6,4-6,7.7v2h6V25.3z"/>
		<path class="st2" d="M23,25.3V35h2h4v-2C29,29.3,26.4,26.2,23,25.3z"/>
		<path class="st1" d="M13,39v6c0,4.4,3.6,8,8,8s8-3.6,8-8v-6h-8H13z"/>
		<rect x="43" y="20" class="st1" width="8" height="25"/>
		<path class="st1" d="M43,51c0,0.9,0.4,2,2,2h4c0.9,0,2-0.4,2-2v-2h-8V51z"/>
	</g>
	<polygon class="st2" points="47,12 51,16 43,16 	"/>
</g>
</svg>
