<?xml version="1.0" encoding="UTF-8"?>
<svg id="a" xmlns="http://www.w3.org/2000/svg" viewBox="0 0 64 64">
  <defs>
    <style>
      .cls-1 {
        fill: #f9e3b6;
      }

      .cls-1, .cls-2, .cls-3, .cls-4 {
        stroke-width: 0px;
      }

      .cls-2 {
        fill: #e4a201;
      }

      .cls-3 {
        fill: #fcf1da;
      }

      .cls-4 {
        fill: #fff;
      }
    </style>
  </defs>
  <path class="cls-4" d="M14.75,40.05v-20.7c-2.53,0-4.6,2.07-4.6,4.6v25.3c0,2.53,2.07,4.6,4.6,4.6h25.3c2.53,0,4.6-2.07,4.6-4.6h-20.7c-5.06,0-9.2-4.14-9.2-9.2Z"/>
  <path class="cls-3" d="M49.25,10.15h-25.3c-2.53,0-4.6,2.07-4.6,4.6v25.3c0,2.53,2.07,4.6,4.6,4.6h25.3c2.53,0,4.6-2.07,4.6-4.6V14.75c0-2.53-2.07-4.6-4.6-4.6Z"/>
  <path class="cls-3" d="M49.25,27.4c0,1.27-1.03,2.3-2.3,2.3h-8.05v8.05c0,1.27-1.04,2.3-2.3,2.3s-2.3-1.03-2.3-2.3v-8.05h-8.05c-1.27,0-2.3-1.04-2.3-2.3s1.03-2.3,2.3-2.3h8.05v-8.05c0-1.27,1.04-2.3,2.3-2.3s2.3,1.03,2.3,2.3v8.05h8.05c1.27,0,2.3,1.04,2.3,2.3Z"/>
  <path class="cls-2" d="M49.25,5.55h-25.3c-5.06,0-9.2,4.14-9.2,9.2-5.06,0-9.2,4.14-9.2,9.2v25.3c0,5.06,4.14,9.2,9.2,9.2h25.3c5.06,0,9.2-4.14,9.2-9.2,5.06,0,9.2-4.14,9.2-9.2V14.75c0-5.06-4.14-9.2-9.2-9.2Z"/>
  <path class="cls-1" d="M53.85,40.05c0,2.53-2.07,4.6-4.6,4.6h-25.3c-2.53,0-4.6-2.07-4.6-4.6V14.75c0-2.53,2.07-4.6,4.6-4.6h25.3c2.53,0,4.6,2.07,4.6,4.6v25.3Z"/>
  <path class="cls-4" d="M40.05,53.85H14.75c-2.53,0-4.6-2.07-4.6-4.6v-25.3c0-2.53,2.07-4.6,4.6-4.6v20.7c0,5.06,4.14,9.2,9.2,9.2h20.7c0,2.53-2.07,4.6-4.6,4.6Z"/>
  <path class="cls-2" d="M46.95,25.1h-8.05v-8.05c0-1.27-1.04-2.3-2.3-2.3s-2.3,1.03-2.3,2.3v8.05h-8.05c-1.27,0-2.3,1.04-2.3,2.3s1.03,2.3,2.3,2.3h8.05v8.05c0,1.27,1.04,2.3,2.3,2.3s2.3-1.03,2.3-2.3v-8.05h8.05c1.27,0,2.3-1.04,2.3-2.3s-1.03-2.3-2.3-2.3Z"/>
</svg>