<?xml version="1.0" encoding="UTF-8"?>
<svg id="a" xmlns="http://www.w3.org/2000/svg" viewBox="0 0 64 64">
  <defs>
    <style>
      .cls-1 {
        fill: #0d9dda;
      }

      .cls-1, .cls-2, .cls-3 {
        stroke-width: 0px;
      }

      .cls-2 {
        fill: #00004c;
      }

      .cls-3 {
        fill: #fff;
      }
    </style>
  </defs>
  <path class="cls-1" d="M32,56.22c-13.33.09-24.13-10.61-24.22-23.94-.09-13.33,10.7-24.13,24.03-24.22,13.33-.09,24.13,10.7,24.22,23.94v.09c0,13.33-10.8,24.13-24.03,24.13Z"/>
  <path class="cls-2" d="M32,58.29c14.52,0,26.29-11.77,26.29-26.29S46.52,5.71,32,5.71,5.71,17.48,5.71,32s11.77,26.29,26.29,26.29Z"/>
  <path class="cls-1" d="M32,56.22c-13.33.09-24.13-10.61-24.22-23.94-.09-13.33,10.7-24.13,24.03-24.22,13.33-.09,24.13,10.7,24.22,23.94v.09c0,13.33-10.8,24.13-24.03,24.13Z"/>
  <path class="cls-3" d="M25.33,43.83c-4.13-2.07-6.76-6.38-6.76-10.98,0-2.44.75-4.88,2.07-6.95l8.64,12.95h5.26l8.64-12.95c1.31,2.07,2.07,4.51,2.07,6.95,0,4.32-2.25,8.36-5.91,10.61l1.69,6.38c9.67-5.07,13.52-16.99,8.45-26.75-1.69-3.29-4.22-6.01-7.42-7.89l-10.04,15.58-9.95-15.58c-9.39,5.54-12.58,17.65-6.95,27.04,2.07,3.38,5.07,6.2,8.64,7.89l1.6-6.29Z"/>
</svg>