<svg viewBox="0 0 64 64" xmlns="http://www.w3.org/2000/svg"><path d="m28.29 26.43c4.61 0 8.36-3.74 8.36-8.36s-3.74-8.36-8.36-8.36-8.36 3.74-8.36 8.36 3.74 8.36 8.36 8.36z" fill="#0d9dda"/><path d="m41.29 50.57c-1.3 0-2.51-.46-3.44-1.21l-4.64-3.71c-1.21-.93-1.86-2.23-2.04-3.71-.19-1.49.28-2.97 1.21-4.09 1.02-1.3 2.69-2.14 4.36-2.14 1.21 0 2.32.37 3.25 1.02l.09-.19c-2.51-3.9-6.78-6.5-11.7-6.5-7.71 0-13.93 6.22-13.93 13.93v10.21h27.85v-3.81c-.37.19-.74.19-1.02.19z" fill="#0d9dda"/><path d="m48.81 33.21c-.37-.19-.65-.28-1.02-.28-.65 0-1.21.28-1.58.84l-1.86 2.97v.09l-1.21 1.86-1.3 2.04-.93 1.49-2.51-1.95-.56-.46c-.37-.28-.84-.37-1.21-.37-.56 0-1.11.28-1.49.74-.65.84-.56 1.95.28 2.6l4.64 3.71c.37.28.74.37 1.11.37h.28c.19 0 .46-.09.65-.28.28-.19.46-.37.65-.56l1.3-1.95 1.67-2.6 3.62-5.76c.56-.84.28-1.95-.56-2.51z" fill="#fff"/><path d="m50.76 30.05c-.93-.56-1.95-.84-2.97-.84-1.95 0-3.71.93-4.73 2.6l-.93 1.39c-1.76-2.32-4.18-4.18-6.87-5.38 3.06-2.14 5.11-5.66 5.11-9.75 0-6.68-5.38-12.07-12.07-12.07s-12.07 5.38-12.07 12.07c0 4.09 2.04 7.61 5.11 9.84-6.31 2.69-10.68 8.91-10.68 16.15v12.07c0 1.02.84 1.86 1.86 1.86h31.57c1.02 0 1.86-.84 1.86-1.86v-8.08s0-.09.09-.09l6.5-10.21c1.58-2.6.84-6.03-1.76-7.71z" fill="#032d60"/><path d="m42.22 54.28h-27.85v-10.21c0-7.71 6.22-13.93 13.93-13.93 4.92 0 9.28 2.6 11.7 6.5l-.09.19c-.93-.65-2.14-1.02-3.25-1.02-1.67 0-3.25.74-4.36 2.14-.93 1.21-1.39 2.6-1.21 4.09.19 1.49.93 2.79 2.04 3.71l4.64 3.71c1.02.74 2.23 1.21 3.44 1.21.28 0 .65 0 .93-.09v3.71h.09z" fill="#0d9dda"/><path d="m28.29 26.43c4.61 0 8.36-3.74 8.36-8.36s-3.74-8.36-8.36-8.36-8.36 3.74-8.36 8.36 3.74 8.36 8.36 8.36z" fill="#0d9dda"/><path d="m44.08 44.07-1.21 1.95c-.19.28-.37.46-.65.56-.19.09-.37.19-.65.28h-.28c-.46 0-.84-.19-1.11-.37l-4.64-3.71c-.84-.65-.93-1.76-.28-2.6.37-.46.93-.74 1.49-.74.37 0 .84.09 1.11.37l.56.46 2.51 1.95.93-1.49 1.3-2.04 1.21-1.86v-.09l1.86-2.97c.37-.56.93-.84 1.58-.84.37 0 .65.09 1.02.28.84.56 1.11 1.67.56 2.6l-3.62 5.76-1.67 2.51z" fill="#fff"/></svg>