<?xml version="1.0" encoding="UTF-8"?>
<svg id="a" xmlns="http://www.w3.org/2000/svg" viewBox="0 0 64 64">
  <defs>
    <style>
      .cls-1 {
        fill: #0d9dda;
      }

      .cls-1, .cls-2, .cls-3 {
        stroke-width: 0px;
      }

      .cls-2 {
        fill: #032d60;
      }

      .cls-3 {
        fill: #fff;
      }
    </style>
  </defs>
  <path class="cls-1" d="M15.92,49.93v-18.35c1.32-.38,2.65-.95,3.78-1.8,1.7,1.42,3.88,2.18,6.15,2.18s4.35-.76,6.05-2.08c1.13.85,2.46,1.42,3.88,1.8v18.25H15.92Z"/>
  <path class="cls-3" d="M29.16,41.42h-6.62c-1.04,0-1.89-.85-1.89-1.89s.85-1.89,1.89-1.89h6.62c1.04,0,1.89.85,1.89,1.89s-.85,1.89-1.89,1.89Z"/>
  <path class="cls-2" d="M58.29,26.57l-5.86-15.13c-.28-.66-.95-1.13-1.7-1.13H12.9c-.76-.09-1.42.38-1.7,1.13l-5.49,15.13c-.19.57-.09,1.23.28,1.7,1.51,1.89,3.78,3.12,6.15,3.4v20.15c0,1.04.85,1.89,1.89,1.89h23.64c1.04,0,1.89-.85,1.89-1.89v-20.05c1.7-.28,3.4-.95,4.73-2.08,1.13.95,2.46,1.61,3.78,1.89v20.24c0,1.04.85,1.89,1.89,1.89s1.89-.85,1.89-1.89v-20.05c2.27-.38,4.45-1.51,6.05-3.31.47-.57.57-1.23.38-1.89ZM15.92,49.93v-18.35c1.32-.38,2.65-.95,3.78-1.8,1.7,1.42,3.88,2.18,6.15,2.18s4.35-.76,6.05-2.08c1.13.85,2.46,1.42,3.88,1.8v18.25H15.92ZM50.44,28.27c-1.89,0-3.69-.85-4.92-2.27-.66-.66-1.8-.66-2.55,0-1.61,1.7-2.93,2.27-4.82,2.27s-3.97-.85-4.54-1.89c-.09-.19-.28-.38-.47-.57-.76-.57-1.89-.47-2.55.38-1.13,1.42-2.93,2.27-4.73,2.18-1.8,0-3.59-.85-4.73-2.27-.38-.38-.85-.66-1.42-.66s-1.04.19-1.42.66c-1.23,1.42-2.93,2.18-4.82,2.18-1.51,0-2.93-.47-4.07-1.42l4.73-12.96h35.37l5.01,12.86c-1.13.95-2.55,1.51-4.07,1.51Z"/>
  <path class="cls-1" d="M50.44,28.27c-1.89,0-3.69-.85-4.92-2.27-.66-.66-1.8-.66-2.55,0-1.61,1.7-2.93,2.27-4.82,2.27s-3.97-.85-4.54-1.89c-.09-.19-.28-.38-.47-.57-.76-.57-1.89-.47-2.55.38-1.13,1.42-2.93,2.27-4.73,2.18-1.8,0-3.59-.85-4.73-2.27-.38-.38-.85-.66-1.42-.66s-1.04.19-1.42.66c-1.23,1.42-2.93,2.18-4.82,2.18-1.51,0-2.93-.47-4.07-1.42l4.73-12.96h35.37l5.01,12.86c-1.13.95-2.55,1.51-4.07,1.51Z"/>
</svg>